<svg version="1.1" id="Layer_1" xmlns="http://www.w3.org/2000/svg" xmlns:xlink="http://www.w3.org/1999/xlink" x="0px" y="0px" viewBox="0 0 889 452" style="enable-background:new 0 0 889 452;" xml:space="preserve">
<style type="text/css">
	.st0{fill:#FFFFFF;}
</style>
<g>
	<path class="st0" d="M190.9,101.3c-61.3,0-111,49.7-111,111s49.7,111,111,111s111-49.7,111-111S252.2,101.3,190.9,101.3z
		 M190.9,311.9c-55,0-99.7-44.6-99.7-99.7s44.6-99.7,99.7-99.7s99.7,44.6,99.7,99.7S246,311.9,190.9,311.9z"></path>
	<path class="st0" d="M190.9,85.4c-70,0-126.8,56.8-126.8,126.8s56.8,126.8,126.8,126.8s126.8-56.8,126.8-126.8
		S260.9,85.4,190.9,85.4z M190.9,327.8c-63.8,0-115.5-51.7-115.5-115.5S127.1,96.7,190.9,96.7c63.8,0,115.5,51.7,115.5,115.5
		S254.7,327.8,190.9,327.8z"></path>
	<polygon class="st0" points="620,219.9 606.8,219.9 664.6,70.9 677.9,70.9 	"></polygon>
	<polygon class="st0" points="583.4,357.5 570.1,357.5 682.3,70.9 695.6,70.9 	"></polygon>
	<polygon class="st0" points="601.1,357.5 587.8,357.5 699.9,70.9 713.2,70.9 	"></polygon>
	<path class="st0" d="M323.1,370.6c0,0-40.7,2.1-80.3-25.9c1.5-0.6,2.9-1.2,4.3-1.8c25.3,15.9,46.9,23.2,76.2,22.5l-0.2-11.4
		c0,0-29.4,3.5-63.5-17.3c1.4-0.8,2.8-1.6,4.2-2.4c15,8.7,32.3,16.2,59.5,15.2v-10.6c0,0-25.1,0.7-48.5-11.9
		c1.2-0.8,2.3-1.7,3.4-2.6c5.5,3.2,21.6,10,45.1,9.2v-10.8c0,0-18.7,0.3-35.2-6.8c27.7-26,45-62.9,45-103.8
		c0-78.6-63.7-142.2-142.2-142.2v11.3c72.3,0,130.9,58.6,130.9,130.9s-58.6,130.9-130.9,130.9C118.6,343.2,60,284.6,60,212.2
		c0-1.4,0-2.8,0.1-4.2H48.7c0,1.4-0.1,2.8-0.1,4.2c0,78.6,63.7,142.2,142.2,142.2c12.9,0,25.5-1.7,37.4-5
		c35.3,26.1,65.2,31.8,95,32.5L323.1,370.6z"></path>
	<path class="st0" d="M826.4,357.5h13.3L729.4,75.2l-0.1,0.3l-1.9-4.6H718L605.8,357.5h13.3l37.7-96.3h131.9l1.5,3.9h-99.5v12.3
		h51.7l31.5,80h13.3l-31.5-80h4.1l31.5,80h13.3l-31.5-80h4.7l31.5,80h13.3l-31.5-80h3.9L826.4,357.5z M722.8,92.5l54.7,140.1h-4.3
		L720.7,97.9L722.8,92.5z M714,114.9L760,232.6h-4.8l-43.5-111.4L714,114.9z M705,138.2l36.9,94.4h-4L703,143.2L705,138.2z
		 M696.3,160.2l28.2,72.4H668L696.3,160.2z M661.6,248.8l1.5-3.9h119.2l1.5,3.9H661.6z"></path>
	<path class="st0" d="M190.9,296.3c-46.5,0-84.2-37.7-84.2-84.2c0-46.5,37.7-84.2,84.2-84.2c46.5,0,84.2,37.7,84.2,84.2
		c0,0,0,0.1,0,0.1H286c0,0,0-0.1,0-0.1c0-52.5-42.6-95.1-95.1-95.1c-52.5,0-95.1,42.6-95.1,95.1c0,52.5,42.5,95.1,95,95.1V296.3z"></path>
</g>
<path class="st0" d="M446.3,173.2c0.3-0.5,0.8-1,1.3-1.6c2.2-2.6,5.5-6.4,5.5-12.9c0-4.2-2-8.3-5.5-11.4c-4.1-3.6-9.6-5.3-15-4.6
	c-11.6,1.5-17.7,10.7-17.7,19c0,4.8,2.1,9.7,5.6,13.3l8,7.6c11.7,12.8,40.8,39.2,64.3,60.6c6.7,6.1,13.1,11.8,17.9,16.3l7.9,7.4
	l0.1-0.1l39.5,35.6l6.9-7.6l-35-31.6l9.3-9.3l-7.2-7.2l-9.7,9.7c-1-0.9-2-1.9-3.2-3l33.1-33.1l-7.2-7.2l-33.4,33.4l-3.5-3.2
	l33.6-33.6l-7.2-7.2l-33.9,33.9l-3.1-2.9l33.8-33.8l-7.2-7.2l-34,34l-18.8-17.6c8.1-7.4,14.8-16,19.5-24.8
	c4.7-8.7,7.3-17.5,7.6-25.4c0.6-15.5-5.6-31.2-16.8-42.9c-12.1-12.6-29-19.5-47.5-19.5c-18.1,0-34.9,7.5-47.4,21.1
	c-5.5,6-10.1,13.2-13.1,20.8c-3.1,7.5-4.7,15.5-4.7,23.1c0,18.6,6.2,32.8,20.8,47.4l0.8,0.9l-8.3,7.1c-9.2,7.4-16.1,15.8-20.7,24.9
	c-4.4,9-6.7,19-6.7,29.7c0,17.3,6.2,33.3,17.4,45c12.5,13.1,30.4,20.1,51.7,20.1c26.3,0,42.5-10.5,65-31.3l1.7-1.6l33.7,31.6l7-7.5
	L500.1,298l0.1-0.1c-6.8-6.8-29.1-27.5-50.7-47.6c-21.5-20-43.8-40.6-50.5-47.3l-0.1,0.1l-1.7-1.8l-0.1-0.1
	c-6.6-6.6-10.9-12.6-13.8-19c-2.8-6.3-4.1-13-4.1-21.1c0-12.8,5.7-26.6,15.1-36.9c10.5-11.5,24.7-17.8,39.9-17.8
	c15.7,0,30,5.8,40.2,16.4c9.4,9.7,14.5,22.6,14,35.4c-0.5,13.5-9.7,30-24,43.1l-0.5,0.4l-2.8-2.6c10.1-9.6,16.9-19.4,20.2-29.3
	c3.1-9.5,3-19.1-0.3-27.9c-3.3-8.7-9.9-16.5-18.4-22.2c-8-5.3-17.1-8.2-25.5-8.2c-0.1,0-0.2,0-0.3,0c-20.4,0-32.7,9.2-39.5,16.9
	c-7.3,8.4-12.1,19.7-12.6,30.1c-1.2,21.9,9.3,32.4,22.5,45.6c6.8,6.8,34.4,32.6,63.6,60c27.9,26.1,56.7,53.1,63.4,59.8l7.2-7.2
	c-6.8-6.8-34.4-32.7-63.6-60c-27.9-26.1-56.7-53.1-63.4-59.8c-13.8-13.8-20.4-21.2-19.5-37.8c0.3-6.4,3.2-16,10.1-23.9
	c7.8-8.9,18.5-13.4,31.8-13.4c0.1,0,0.2,0,0.3,0c6.4,0,13.6,2.4,19.9,6.6c6.8,4.4,11.9,10.6,14.5,17.3c2.5,6.6,2.6,13.7,0.2,21
	c-2.8,8.4-8.8,17-18,25.6l-2.6-2.5c1.8-1.6,3.4-3.2,4.9-4.9c13.6-14.9,13.6-27.3,11.2-35.1c-3.1-10.2-12.2-18.3-23.9-21.3
	c-10.7-2.7-21.3-0.7-29.7,5.7c-8.3,6.3-13.4,16.1-13.6,26.2c-0.4,13.5,5.4,23.6,21.7,37.5c12.7,11.9,34.5,32.2,57.4,53.3
	c29.5,27.3,60.1,55.6,66.7,62.3l7.2-7.2c-6.8-6.8-36.1-33.9-67-62.6c-20.9-19.4-42.3-39.2-55.4-51.5l0.1-0.1
	c-0.7-0.6-1.5-1.2-2.2-1.8c-4.4-4.1-7.6-7.2-9.3-8.9l-0.1,0.1c-2.4-2.6-4.2-4.9-5.5-7.2c-2.6-4.3-3.6-8.4-3.5-13.6
	c0.2-7.1,3.8-13.9,9.6-18.3c5.9-4.5,13.3-5.8,21-3.9c8.2,2.1,14.6,7.5,16.6,14.3c2.3,7.5-0.8,16.3-9,25.3c-1.4,1.6-3,3.2-4.8,4.7
	l-3.4-3.2l5.9-5.8L446.3,173.2z M449.9,265.2l-7,7.2c-5.3,5.3-9.2,9.2-16.7,9.2c-4.9,0-8.7-1.2-11.3-3.7c-2.5-2.4-3.9-5.8-3.9-9.8
	c0-3.8,3.9-10.2,8.9-14.6l8.9-7.7L449.9,265.2z M418.9,235.6c1,0.9,2,1.8,3,2.8l-8.7,7.5l0,0c-6.2,5.4-12.4,14.4-12.4,22.3
	c0,6.9,2.5,12.8,7.1,17.1c4.5,4.3,10.7,6.5,18.4,6.5c11.8,0,18.3-6.5,24-12.2l7.6-7.9c1.2,1.1,2.4,2.2,3.5,3.3l-10.5,10.4
	c-8,7.3-17.7,13.6-34.1,9.9c-5.5-1.2-10.3-3.9-14.4-8c-2.3-2.3-5.1-8-6.1-12.2c-1.4-6-0.7-11.4,2.1-16.9c2.5-4.9,6.6-10,13.5-16.7
	L418.9,235.6z M411.4,228.5l-6.2,5.2l-0.3,0.2c-7.8,7.5-12.6,13.6-15.7,19.6c-3.9,7.7-4.8,15.5-2.9,23.8c1.4,6.2,5.2,13.5,8.8,17.2
	c5.5,5.5,12,9.1,19.4,10.8c3.5,0.8,7.4,1.4,11.7,1.4c9.2,0,19.9-3,31.7-13.8l11-10.9c1.3,1.2,2.6,2.4,3.8,3.6
	c-3.7,3.2-9.1,8-12.2,10.9c-3.2,2.9-8.2,7.2-15,10.4c-8,3.7-16.9,5.2-26.4,4.5c-14.8-1.1-23.9-8.2-29-13.8c-6-6.8-8.9-16.3-9.5-22.9
	c-1.4-13.9,3.6-25.9,15.5-37.6l12.3-11.3C409.3,226.6,410.3,227.6,411.4,228.5z M398.3,216.2c0.8,0.8,1.7,1.6,2.6,2.4L389,229.5
	l-0.1,0.1c-14.1,13.9-20.2,28.9-18.6,46c0.8,8.3,4.4,20.1,12.1,28.7c6.3,7.1,17.7,15.8,35.9,17.2c1.8,0.1,3.6,0.2,5.4,0.2
	c9.3,0,18-1.9,26.1-5.6c8.2-3.8,14-8.8,17.7-12.2c3-2.8,8.6-7.7,12.2-10.9c0.2-0.2,0.4-0.3,0.6-0.5c1.2,1.1,2.3,2.2,3.4,3.2
	l-1.6,1.5c-23.7,21.9-37.3,28.6-58.1,28.6c-18.4,0-33.8-5.8-44.3-16.9c-9.4-9.8-14.5-23.3-14.5-38c0-18.7,7.7-33.9,23.6-46.7
	L398.3,216.2z M439.9,165c-0.5,0.6-1,1.2-1.6,1.9l-5.7,5.5l-4.9-4.6c-1.8-1.8-2.6-4.3-2.6-6c0-3.7,2.8-8,8.8-8.8
	c2.5-0.3,5.1,0.5,7,2.1c1.3,1.1,2,2.5,2,3.7C442.9,161.3,441.8,162.7,439.9,165z"></path>
</svg>