<?xml version="1.0" encoding="UTF-8"?><svg id="Layer_1" xmlns="http://www.w3.org/2000/svg" viewBox="0 0 530.28 530.28"><defs><style>.cls-1{fill:#fff;}</style></defs><path class="cls-1" d="M446.21,0H84.09C37.72,0,0,37.72,0,84.08V443.34c0,47.94,39.01,86.95,86.95,86.95H442.69c48.3,0,87.6-39.29,87.6-87.59V84.08c0-46.36-37.72-84.08-84.08-84.08Zm69.49,442.69c0,40.26-32.75,73.01-73.01,73.01H86.95c-39.9,0-72.36-32.46-72.36-72.36V84.08C14.59,45.76,45.76,14.59,84.09,14.59H446.21c38.32,0,69.49,31.17,69.49,69.49V442.69Z"/><g><path class="cls-1" d="M55.95,208.01v131.05l-23.39,5.25V213.26l23.39-5.25Zm61.91,16.9c-14.43,3.24-23.29,19.49-23.29,19.49v-12.22l-22.69,4.95v78.19c2.77-1.06,5.77-1.67,8.92-1.67,5.06,0,9.76,1.52,13.69,4.1v-38.17c.17-18.28,5.41-28.96,16.36-31.42,9.62-2.16,13.23,5.01,13.07,16.07v59.7l22.28-5.03,.15-59.52c.2-29.12-11.57-38.26-28.48-34.47Zm33.72-5.67l12.77-2.87v-18.34l22.58-5.03v18.3l16.08-3.61-.23,19.82-16.09,3.61-.12,49.63c.11,6.06,1.17,9.81,7.97,8.28,2.65-.6,4.78-1.26,7.2-2.19l.06,18.61c-5.64,2.67-9.04,3.75-13.68,4.8-12.91,2.99-24.06-5.41-24.06-22.58l.08-51.49-12.77,2.87,.23-19.82Zm78.64,37.52c0,2.09-.05,3.81,.29,5.82,1.69,10.06,6.63,17.87,16.8,15.59,9.33-2.09,12.44-8.29,14.23-15.14l23.67-5.31c-2.47,15.16-10.67,34.27-36.5,40.06-23.17,5.19-37.17-8.17-41.01-31.03-4.21-25.05,2.32-62.38,36.65-70.07,25.33-5.68,37.19,9.31,40.44,28.69,1.29,7.68,1.21,13.39,.77,18.99l-55.33,12.4Zm32.87-24.64c.06-1.72-.19-3.18-.37-4.28-1.38-8.23-5.91-14.61-15.91-12.37-10.33,2.32-15.44,11.05-16.38,23.97l32.67-7.32Zm78.33-28.8c-15.72,3.72-23.31,14.68-23.4,36.17l-.2,40.85-22.56,5.07v-98.46l21.78-4.88c.28,2.41,.8,9.7,.75,17.7,3.67-12.61,8.7-19.08,23.63-22.43v25.98Zm80.15,53.01l-.12,.03-22.65,5.12c-1.56-2.83-3.12-7.32-3.8-10.49-3.21,6.8-7.61,14.63-23.53,18.21-16.92,3.8-26.54-7.73-28.64-18.85-4.97-26.25,13.87-39,33.14-43.91,6.94-1.77,12.77-2.81,19.35-4.48l-.33-5.9c-.15-7.19-1.81-15.94-13.91-13.22-10.78,2.42-11.35,9.25-12.31,14.22l-23.06,5.18c.29-15.84,7.21-31.13,33.91-37.13,20.9-4.69,38.28,1.51,38.12,27.2v46.7s.56,7.88,1.45,11.67c.9,3.84,2.39,5.65,2.39,5.65Zm-26.61-38.41c-5.64,1.27-10.38,2.71-14.76,4.26-12.19,5.02-16.31,10.69-14.79,18.71,1.03,5.47,4.98,8.95,12.28,7.32,15.59-3.5,16.95-18.25,17.21-28.76l.06-1.53Zm107.99-12.54c-1.26,18.91-10.08,36.28-35.46,41.98-21.73,4.88-35.83-6.59-40.11-29.19-5.17-27.35,2.64-64.64,34.49-71.79,27.87-6.26,38.94,13.87,40.06,26.17l-21.9,4.92c-1.55-7.25-5.12-14.25-15.24-11.97-15.93,3.58-17.26,31.24-14.4,46.37,2.48,13.12,8.4,17.88,16.53,16.05,7.46-1.68,11.74-7.39,13.47-17.47l22.56-5.07Z"/><g><path class="cls-1" d="M132.45,372.76l-31.94-21.74s0,51,0,53.34c0,1.64-1.33,2.97-2.95,2.97s-2.94-1.33-2.94-2.97c0-.57-.07-58.32-.07-65.37,0-7.56-6.14-13.71-13.7-13.71s-13.72,6.15-13.72,13.71l.02,113.89c0,20.45,16.64,37.11,37.09,37.11h2.45c20.17,0,36.36-16.35,36.37-36.52,0,0,.02-59.5,.02-60.1,0-7.91-4.37-15.83-10.62-20.62Z"/><g><path class="cls-1" d="M39.79,355.78c-5.65,1.36-9.14,7.04-7.78,12.7,1.36,5.65,7.04,9.14,12.7,7.78l15.96-3.83v-21.66l-20.87,5.01Z"/><path class="cls-1" d="M39.79,383.68c-5.65,1.36-9.14,7.04-7.78,12.7,1.36,5.65,7.04,9.14,12.7,7.78l15.96-3.83v-21.66l-20.87,5.01Z"/><path class="cls-1" d="M32.01,424.28c1.36,5.65,7.04,9.14,12.7,7.78l15.96-3.83v-21.66l-20.87,5.01c-5.65,1.36-9.14,7.04-7.78,12.7Z"/></g></g></g></svg>