<?xml version="1.0" encoding="utf-8"?>
<!-- Generator: Adobe Illustrator 23.0.1, SVG Export Plug-In . SVG Version: 6.00 Build 0)  -->
<svg version="1.1" id="Layer_1" xmlns="http://www.w3.org/2000/svg" xmlns:xlink="http://www.w3.org/1999/xlink" x="0px" y="0px"
	 viewBox="0 0 288 153" style="enable-background:new 0 0 288 153;" xml:space="preserve">
<style type="text/css">
	.st0{fill-rule:evenodd;clip-rule:evenodd;fill:#FFFFFF;}
</style>
<title>Mercedes</title>
<desc>Created with Sketch.</desc>
<g id="Page-1">
	<g id="MERCEDES" transform="translate(-74.000000, -74.000000)">
		<g id="Mercedes" transform="translate(74.000000, 74.000000)">
			<path id="path3524" class="st0" d="M172,8.7c24.4,12.8,41,38.3,41,67.8s-16.6,55.1-41,67.8v-8.8c9.3-5.6,17.2-13.4,22.9-22.6
				l-22.9-9.3V89.4l25.2,19.7c5.3-9.7,8.2-20.8,8.2-32.6c0-25-13.4-46.9-33.4-59V8.7z M136.6,0c12.7,0,24.8,3.1,35.4,8.7v8.8
				c-9.8-5.9-21.3-9.4-33.4-9.8l8.8,62.6L172,89.4v14.2l-35.6-14.4l-35.3,14.5V89.6l24.8-19.3l8.7-62.6c-12.3,0.4-23.6,3.9-33.4,9.8
				V8.7C111.7,3.1,123.8,0,136.6,0z M172,144.3c-10.7,5.6-22.7,8.7-35.4,8.7c-12.8,0-24.9-3.2-35.5-8.7v-8.8
				c10.3,6.3,22.5,9.9,35.5,9.9c12.9,0,25-3.6,35.4-9.9V144.3z M101.1,144.3C76.6,131.5,60,105.9,60,76.5s16.6-55,41.1-67.8v8.8
				c-20.1,12.1-33.4,34-33.4,59c0,11.9,3,23.1,8.3,32.8l25.2-19.7v14.1l-22.8,9.4c5.7,9.2,13.5,16.9,22.8,22.4V144.3z"/>
		</g>
	</g>
</g>
</svg>
