<?xml version="1.0" encoding="UTF-8"?>
<svg width="163px" height="23px" viewBox="0 0 163 23" version="1.1" xmlns="http://www.w3.org/2000/svg" xmlns:xlink="http://www.w3.org/1999/xlink">
    <!-- Generator: Sketch 51.1 (57501) - http://www.bohemiancoding.com/sketch -->
    <title>Group 7</title>
    <desc>Created with Sketch.</desc>
    <defs></defs>
    <g id="Page-1" stroke="none" stroke-width="1" fill="none" fill-rule="evenodd">
        <g id="Group-7" fill="#FFFFFF">
            <path d="M21.4268041,0.0989247312 L21.4268041,13.2064516 C21.4268041,17.7075269 19.2494845,20.3290323 12.7670103,20.3290323 C6.23505155,20.3290323 4.05773196,17.6580645 4.05773196,13.2064516 L4.05773196,3.95698925 C3.95876289,1.78064516 2.17731959,0 0,0 L0,2.57204301 C0.791752577,2.57204301 1.43505155,3.21505376 1.48453608,3.95698925 L1.48453608,14.0967742 C1.48453608,19.2903226 5.59175258,23 12.7670103,23 C19.942268,23 24,19.2903226 24,14.0967742 L24,0.0494623656 L21.4268041,0.0494623656 L21.4268041,0.0989247312" id="Fill-1"></path>
            <path d="M95.4931507,20.2763158 L95.4931507,14.0219298 C95.4931507,13.1644737 96.2123288,12.4583333 96.9794521,12.4583333 L107.863014,12.4583333 L107.863014,9.83552632 L96.9794521,9.83552632 C96.4520548,9.83552632 95.9726027,9.98684211 95.4931507,10.1885965 L95.4931507,2.62280702 L113.232877,2.62280702 L113.232877,0 L93,0 L93,23 L114,23 L114,20.377193 C113.952055,20.2763158 95.4931507,20.2763158 95.4931507,20.2763158" id="Fill-2"></path>
            <path d="M142.085603,11.3089419 C141.550584,11.3089419 141.064202,11.4077099 140.577821,11.605246 L140.577821,2.46920128 L154.439689,2.46920128 C156.871595,2.46920128 158.817121,4.44456231 158.817121,6.91376359 C158.817121,9.38296487 156.871595,11.3583259 154.439689,11.3583259 L142.085603,11.3089419 L142.085603,11.3089419 Z M161.492218,20.0992984 C160.859922,20.5931387 160.033074,20.4943706 159.498054,19.9017623 L154.634241,13.6299911 C158.233463,13.531223 161.151751,10.5187975 161.151751,6.81499554 C161.151751,3.01242556 158.136187,0 154.391051,0 L138,0 L138,22.5191157 L140.529183,22.5191157 L140.529183,15.2102799 C140.577821,14.3707515 141.258755,13.7287591 142.036965,13.7287591 L151.375486,13.7287591 L157.455253,21.5314352 C158.865759,23.210492 161.297665,23.5067962 163,22.1240435 L161.492218,20.0992984 L161.492218,20.0992984 Z" id="Fill-3"></path>
            <path d="M63.6382979,20.4780702 L49.5446809,20.4780702 L49.5446809,13.9714912 C49.5446809,13.1140351 50.2787234,12.3574561 51.1106383,12.3574561 L63.6382979,12.3574561 C65.8404255,12.3574561 67.6021277,14.1732456 67.6021277,16.3925439 C67.5531915,18.6622807 65.7914894,20.4780702 63.6382979,20.4780702 L63.6382979,20.4780702 Z M49.5446809,2.47149123 L63.687234,2.47149123 C65.6446809,2.47149123 67.2595745,4.13596491 67.2595745,6.15350877 C67.2595745,8.17105263 65.6446809,9.83552632 63.687234,9.83552632 L50.8659574,9.83552632 C50.3765957,9.88596491 49.9361702,9.98684211 49.5446809,10.1381579 L49.5446809,2.47149123 L49.5446809,2.47149123 Z M67.3085106,11.0964912 C68.7276596,9.98684211 69.706383,8.17105263 69.706383,6.20394737 C69.706383,2.77412281 67.0148936,0 63.687234,0 L47,0 L47,23 L63.6382979,23 C67.1617021,23 70,20.0745614 70,16.4429825 C69.9510638,14.2236842 68.9234043,12.2565789 67.3085106,11.0964912 L67.3085106,11.0964912 Z" id="Fill-4"></path>
        </g>
    </g>
</svg>